<svg xmlns="http://www.w3.org/2000/svg" viewBox="15615 -16345 14.8 12">
  <defs>
    <style>
      .cls-1 {
        fill: #386165;
      }
    </style>
  </defs>
  <path id="Printer_icon_1_" class="cls-1" d="M14.3,1.9H11.8V.4a.43.43,0,0,0-.4-.4H3.3a.43.43,0,0,0-.4.4V1.9H.4a.43.43,0,0,0-.4.4V7.7A.446.446,0,0,0,.4,8H3v3.6a.43.43,0,0,0,.4.4h8a.43.43,0,0,0,.4-.4V8h2.6a.43.43,0,0,0,.4-.4V2.3C14.7,2.1,14.6,1.9,14.3,1.9ZM3.7.8H11V1.9H3.7ZM11,11.2H3.7V5.7H11v5.5Zm3-3.9H11.8V5.4a.43.43,0,0,0-.4-.4h-8a.366.366,0,0,0-.4.4V7.3H.8V2.7H14ZM5.1,8H9.6a.4.4,0,0,0,0-.8H5.1a.4.4,0,0,0,0,.8Zm0,1.8H9.6a.4.4,0,0,0,0-.8H5.1a.4.4,0,1,0,0,.8Z" transform="translate(15615 -16345)"/>
</svg>
