<?xml version="1.0" encoding="utf-8"?>
<!-- Generator: Adobe Illustrator 19.0.0, SVG Export Plug-In . SVG Version: 6.00 Build 0)  -->
<svg version="1.1" id="Layer_1" xmlns="http://www.w3.org/2000/svg" xmlns:xlink="http://www.w3.org/1999/xlink" x="0px" y="0px"
	 viewBox="0 0 30 30" style="enable-background:new 0 0 30 30;" xml:space="preserve">
<g>
	
		<rect id="XMLID_6_" x="15.8" y="17.4" transform="matrix(0.7071 0.7071 -0.7071 0.7071 18.0984 -7.3496)" width="4.3" height="1.5"/>
	<path id="XMLID_3_" d="M13.8,18.5c-2.5,0-4.5-2-4.5-4.5c0-2.5,2-4.5,4.5-4.5c2.5,0,4.5,2,4.5,4.5C18.2,16.5,16.2,18.5,13.8,18.5z
		 M13.8,11.1c-1.6,0-3,1.3-3,3c0,1.6,1.3,3,3,3c1.6,0,3-1.3,3-3C16.7,12.4,15.4,11.1,13.8,11.1z"/>
</g>
</svg>
